<svg width="556" height="420" viewBox="0 0 556 420" fill="none" xmlns="http://www.w3.org/2000/svg">
<path d="M162.238 41.3273L168.115 50.7015L189.08 40.0936L199.86 36.7299C201.26 36.2929 202.523 35.4884 203.524 34.3969C204.524 33.3054 205.226 31.965 205.56 30.5098C205.894 29.0545 205.848 27.5353 205.426 26.104C205.004 24.6727 204.222 23.3794 203.157 22.3534C201.579 20.833 199.484 19.9977 197.314 20.0239C195.144 20.0501 193.069 20.9356 191.527 22.4937L182.481 31.6317L162.238 41.3273Z" fill="#A0616A"/>
<path d="M172.156 50.2646L164.32 37.7657L134.611 51.1059C132.478 52.0639 130.623 53.5682 129.227 55.473C127.83 57.3778 126.94 59.6185 126.642 61.9778C126.275 64.8869 126.825 67.8399 128.212 70.4086C129.6 72.9773 131.753 75.0281 134.359 76.2639L181.72 98.0007C184.989 99.5505 188.722 99.7344 192.122 98.513C195.521 97.2917 198.319 94.7619 199.916 91.464C200.775 89.6903 201.258 87.7519 201.334 85.7749C201.411 83.7979 201.078 81.8267 200.359 79.9895C199.64 78.1523 198.549 76.4903 197.159 75.1116C195.768 73.733 194.109 72.6686 192.289 71.9878L156.762 59.4361L172.156 50.2646Z" fill="#006E62"/>
<path d="M485.714 262.45C485.714 258.696 484.479 255.649 482.962 255.642H69.468C67.9444 255.649 66.7159 258.696 66.7091 262.45V417.001C66.7091 417.35 66.582 417.686 66.3526 417.944C66.1231 418.202 65.8077 418.364 65.4677 418.398C64.3579 418.506 63.2481 418.608 62.1383 418.701C62.1108 418.701 62.0834 418.708 62.0559 418.708C61.452 418.764 60.848 418.806 60.244 418.855H60.2372C59.9265 418.269 59.6194 417.678 59.316 417.081C59.2134 416.88 59.1597 416.657 59.1597 416.43V253.618C59.1597 252.581 59.2009 251.537 59.2695 250.508C59.3674 249.094 59.5393 247.686 59.7842 246.291C60.9441 239.784 63.5658 235.378 66.5444 235.364H485.879C486.314 235.367 486.743 235.459 487.142 235.637C487.727 235.901 488.256 236.279 488.7 236.751C489.301 237.389 489.816 238.108 490.23 238.887C491.699 241.528 492.749 245.464 493.119 250.045C493.119 250.087 493.126 250.129 493.126 250.171C493.222 251.306 493.27 252.462 493.263 253.617L493.675 315.643L493.977 418.05C493.977 418.421 493.833 418.778 493.575 419.04C493.318 419.303 492.969 419.451 492.605 419.451H487.087C486.723 419.451 486.374 419.303 486.116 419.04C485.859 418.778 485.714 418.421 485.714 418.05V262.45Z" fill="#E6E6E6"/>
<path d="M69.6437 338.994L60.7471 337.363L62.6756 301.563L75.8067 303.97L69.6437 338.994Z" fill="#A0616A"/>
<path d="M68.2906 348.523L40.9316 343.509L40.9938 343.156C41.501 340.274 43.1093 337.715 45.4648 336.043C47.8204 334.371 50.7303 333.722 53.5545 334.239L59.2334 331.285L67.8768 336.864L70.2651 337.302L68.2906 348.523Z" fill="#363636"/>
<path d="M285.415 301.207H230.861C229.399 301.205 227.997 300.612 226.963 299.556C225.929 298.501 225.348 297.071 225.346 295.578V244.635C225.348 243.143 225.929 241.712 226.963 240.657C227.997 239.602 229.399 239.008 230.861 239.007H285.415C286.877 239.008 288.279 239.602 289.313 240.657C290.346 241.712 290.928 243.143 290.93 244.635V295.578C290.928 297.071 290.346 298.501 289.313 299.556C288.279 300.612 286.877 301.205 285.415 301.207Z" fill="#363636"/>
<path d="M281.58 296.516H234.695C233.397 296.514 232.152 295.987 231.235 295.051C230.317 294.114 229.8 292.843 229.799 291.519V248.695C229.8 247.37 230.317 246.1 231.235 245.163C232.152 244.226 233.397 243.699 234.695 243.698H281.58C282.878 243.699 284.123 244.226 285.041 245.163C285.959 246.1 286.475 247.37 286.476 248.695V291.519C286.475 292.843 285.959 294.114 285.041 295.051C284.123 295.987 282.878 296.514 281.58 296.516Z" fill="white"/>
<path d="M276.903 256.165H239.372C239.048 256.165 238.737 256.034 238.507 255.799C238.277 255.565 238.148 255.247 238.148 254.916C238.148 254.585 238.277 254.267 238.507 254.033C238.737 253.798 239.048 253.667 239.372 253.667H276.903C277.228 253.667 277.539 253.798 277.768 254.033C277.998 254.267 278.127 254.585 278.127 254.916C278.127 255.247 277.998 255.565 277.768 255.799C277.539 256.034 277.228 256.165 276.903 256.165Z" fill="#006E62"/>
<path d="M276.903 261.102H239.372C239.048 261.102 238.736 260.97 238.507 260.736C238.277 260.501 238.148 260.184 238.148 259.852C238.148 259.521 238.277 259.203 238.507 258.969C238.736 258.735 239.048 258.603 239.372 258.603H276.903C277.228 258.603 277.539 258.735 277.769 258.969C277.998 259.203 278.127 259.521 278.127 259.852C278.127 260.184 277.998 260.501 277.769 260.736C277.539 260.97 277.228 261.102 276.903 261.102Z" fill="#006E62"/>
<path d="M255.641 266.038H239.372C239.048 266.038 238.736 265.906 238.507 265.672C238.277 265.438 238.148 265.12 238.148 264.789C238.148 264.457 238.277 264.139 238.507 263.905C238.736 263.671 239.048 263.539 239.372 263.539H255.641C255.966 263.539 256.277 263.671 256.507 263.905C256.736 264.139 256.865 264.457 256.865 264.789C256.865 265.12 256.736 265.438 256.507 265.672C256.277 265.906 255.966 266.038 255.641 266.038Z" fill="#006E62"/>
<path d="M276.903 276.376H239.372C239.048 276.376 238.737 276.245 238.507 276.01C238.277 275.776 238.148 275.458 238.148 275.127C238.148 274.796 238.277 274.478 238.507 274.244C238.737 274.01 239.048 273.878 239.372 273.878H276.903C277.228 273.878 277.539 274.01 277.768 274.244C277.998 274.478 278.127 274.796 278.127 275.127C278.127 275.458 277.998 275.776 277.768 276.01C277.539 276.245 277.228 276.376 276.903 276.376Z" fill="#E4E4E4"/>
<path d="M276.903 281.313H239.372C239.211 281.313 239.052 281.281 238.903 281.218C238.754 281.156 238.619 281.064 238.505 280.948C238.391 280.832 238.301 280.694 238.239 280.542C238.177 280.39 238.146 280.228 238.146 280.063C238.146 279.899 238.177 279.736 238.239 279.585C238.301 279.433 238.391 279.295 238.505 279.179C238.619 279.063 238.754 278.971 238.903 278.908C239.052 278.846 239.211 278.814 239.372 278.814H276.903C277.228 278.814 277.539 278.946 277.769 279.18C277.998 279.414 278.127 279.732 278.127 280.063C278.127 280.395 277.998 280.712 277.769 280.947C277.539 281.181 277.228 281.313 276.903 281.313Z" fill="#E4E4E4"/>
<path d="M255.641 286.249H239.372C239.048 286.249 238.736 286.117 238.507 285.883C238.277 285.649 238.148 285.331 238.148 285C238.148 284.668 238.277 284.351 238.507 284.116C238.736 283.882 239.048 283.75 239.372 283.75H255.641C255.966 283.75 256.277 283.882 256.507 284.116C256.736 284.351 256.865 284.668 256.865 285C256.865 285.331 256.736 285.649 256.507 285.883C256.277 286.117 255.966 286.249 255.641 286.249Z" fill="#E4E4E4"/>
<path d="M373.355 165.125H328.8C328.17 165.126 327.566 165.382 327.12 165.838C326.675 166.293 326.426 166.91 326.426 167.554V239.388H375.734V167.554C375.735 167.235 375.673 166.919 375.554 166.624C375.434 166.329 375.259 166.061 375.038 165.836C374.817 165.61 374.554 165.431 374.265 165.309C373.977 165.187 373.667 165.125 373.355 165.125ZM351.227 205.94C349.834 205.934 348.499 205.366 347.514 204.36C346.529 203.355 345.973 201.993 345.966 200.571V192.285C345.968 190.862 346.523 189.498 347.509 188.492C348.496 187.486 349.833 186.922 351.227 186.922C352.621 186.922 353.959 187.486 354.945 188.492C355.932 189.498 356.487 190.862 356.488 192.285V200.571C356.482 201.993 355.925 203.355 354.94 204.36C353.955 205.366 352.621 205.934 351.227 205.94Z" fill="#363636"/>
<path d="M326.273 237.09V244.021C326.274 244.38 326.414 244.724 326.663 244.978C326.912 245.232 327.249 245.375 327.601 245.376H374.56C374.911 245.374 375.248 245.231 375.497 244.977C375.745 244.723 375.886 244.38 375.887 244.021V237.09H326.273Z" fill="#363636"/>
<path d="M447.133 53.0194H256.679C255.043 53.022 253.474 53.6866 252.317 54.8675C251.16 56.0484 250.509 57.6492 250.506 59.3193V190.488C250.508 192.158 251.159 193.76 252.316 194.941C253.473 196.122 255.042 196.786 256.679 196.788H447.133C448.77 196.786 450.339 196.122 451.496 194.941C452.653 193.76 453.304 192.158 453.306 190.488V59.3193C453.303 57.6493 452.652 56.0484 451.495 54.8675C450.338 53.6866 448.769 53.022 447.133 53.0194Z" fill="#363636"/>
<path d="M445.543 57.5697H258.27C257.394 57.5717 256.555 57.9282 255.936 58.5612C255.317 59.1941 254.969 60.0517 254.969 60.9459V188.863C254.971 189.756 255.319 190.612 255.938 191.244C256.557 191.876 257.395 192.231 258.27 192.233H445.543C446.418 192.231 447.257 191.876 447.876 191.244C448.495 190.612 448.843 189.756 448.845 188.863V60.9459C448.844 60.0517 448.497 59.1941 447.878 58.5612C447.259 57.9282 446.42 57.5717 445.543 57.5697Z" fill="white"/>
<path d="M409.066 247.787H297.649C297.344 247.787 297.042 247.718 296.767 247.584C296.492 247.45 296.249 247.255 296.057 247.014C295.865 246.772 295.728 246.489 295.656 246.187C295.585 245.884 295.58 245.569 295.643 245.265L297.372 236.884C297.47 236.416 297.723 235.995 298.087 235.693C298.452 235.391 298.907 235.225 299.377 235.224H407.337C407.807 235.225 408.262 235.391 408.627 235.693C408.992 235.995 409.244 236.416 409.343 236.884L411.072 245.265C411.134 245.569 411.13 245.884 411.058 246.187C410.986 246.489 410.85 246.772 410.657 247.014C410.465 247.255 410.223 247.45 409.947 247.584C409.672 247.718 409.371 247.787 409.066 247.787Z" fill="#363636"/>
<path d="M303.265 236.733H300.504C300.318 236.733 300.168 236.886 300.168 237.075V238.492C300.168 238.681 300.318 238.834 300.504 238.834H303.265C303.45 238.834 303.6 238.681 303.6 238.492V237.075C303.6 236.886 303.45 236.733 303.265 236.733Z" fill="#363636"/>
<path d="M310.128 236.733H307.366C307.181 236.733 307.031 236.886 307.031 237.075V238.492C307.031 238.681 307.181 238.834 307.366 238.834H310.128C310.313 238.834 310.463 238.681 310.463 238.492V237.075C310.463 236.886 310.313 236.733 310.128 236.733Z" fill="#363636"/>
<path d="M316.991 236.733H314.23C314.045 236.733 313.895 236.886 313.895 237.074V238.492C313.895 238.681 314.045 238.834 314.23 238.834H316.991C317.176 238.834 317.326 238.681 317.326 238.492V237.074C317.326 236.886 317.176 236.733 316.991 236.733Z" fill="#363636"/>
<path d="M323.854 236.733H321.093C320.908 236.733 320.758 236.886 320.758 237.075V238.492C320.758 238.681 320.908 238.834 321.093 238.834H323.854C324.039 238.834 324.189 238.681 324.189 238.492V237.075C324.189 236.886 324.039 236.733 323.854 236.733Z" fill="#363636"/>
<path d="M330.717 236.733H327.956C327.771 236.733 327.621 236.886 327.621 237.075V238.492C327.621 238.681 327.771 238.834 327.956 238.834H330.717C330.902 238.834 331.052 238.681 331.052 238.492V237.075C331.052 236.886 330.902 236.733 330.717 236.733Z" fill="#363636"/>
<path d="M337.58 236.733H334.819C334.634 236.733 334.484 236.886 334.484 237.075V238.492C334.484 238.681 334.634 238.834 334.819 238.834H337.58C337.765 238.834 337.915 238.681 337.915 238.492V237.075C337.915 236.886 337.765 236.733 337.58 236.733Z" fill="#363636"/>
<path d="M344.443 236.733H341.682C341.497 236.733 341.347 236.886 341.347 237.075V238.492C341.347 238.681 341.497 238.834 341.682 238.834H344.443C344.628 238.834 344.778 238.681 344.778 238.492V237.075C344.778 236.886 344.628 236.733 344.443 236.733Z" fill="#363636"/>
<path d="M351.306 236.733H348.545C348.36 236.733 348.21 236.886 348.21 237.074V238.492C348.21 238.681 348.36 238.834 348.545 238.834H351.306C351.491 238.834 351.642 238.681 351.642 238.492V237.074C351.642 236.886 351.491 236.733 351.306 236.733Z" fill="#363636"/>
<path d="M358.17 236.733H355.408C355.223 236.733 355.073 236.886 355.073 237.075V238.492C355.073 238.681 355.223 238.834 355.408 238.834H358.17C358.355 238.834 358.505 238.681 358.505 238.492V237.075C358.505 236.886 358.355 236.733 358.17 236.733Z" fill="#363636"/>
<path d="M365.033 236.733H362.271C362.086 236.733 361.936 236.886 361.936 237.074V238.492C361.936 238.681 362.086 238.834 362.271 238.834H365.033C365.218 238.834 365.368 238.681 365.368 238.492V237.074C365.368 236.886 365.218 236.733 365.033 236.733Z" fill="#363636"/>
<path d="M371.896 236.733H369.134C368.949 236.733 368.799 236.886 368.799 237.075V238.492C368.799 238.681 368.949 238.834 369.134 238.834H371.896C372.081 238.834 372.231 238.681 372.231 238.492V237.075C372.231 236.886 372.081 236.733 371.896 236.733Z" fill="#363636"/>
<path d="M378.759 236.733H375.997C375.812 236.733 375.662 236.886 375.662 237.075V238.492C375.662 238.681 375.812 238.834 375.997 238.834H378.759C378.944 238.834 379.094 238.681 379.094 238.492V237.075C379.094 236.886 378.944 236.733 378.759 236.733Z" fill="#363636"/>
<path d="M385.622 236.733H382.86C382.675 236.733 382.525 236.886 382.525 237.074V238.492C382.525 238.681 382.675 238.834 382.86 238.834H385.622C385.807 238.834 385.957 238.681 385.957 238.492V237.074C385.957 236.886 385.807 236.733 385.622 236.733Z" fill="#363636"/>
<path d="M392.485 236.733H389.724C389.539 236.733 389.389 236.886 389.389 237.075V238.492C389.389 238.681 389.539 238.834 389.724 238.834H392.485C392.67 238.834 392.82 238.681 392.82 238.492V237.075C392.82 236.886 392.67 236.733 392.485 236.733Z" fill="#363636"/>
<path d="M399.348 236.733H396.586C396.401 236.733 396.251 236.886 396.251 237.075V238.492C396.251 238.681 396.401 238.834 396.586 238.834H399.348C399.533 238.834 399.683 238.681 399.683 238.492V237.075C399.683 236.886 399.533 236.733 399.348 236.733Z" fill="#363636"/>
<path d="M406.211 236.733H403.45C403.265 236.733 403.115 236.886 403.115 237.075V238.492C403.115 238.681 403.265 238.834 403.45 238.834H406.211C406.396 238.834 406.546 238.681 406.546 238.492V237.075C406.546 236.886 406.396 236.733 406.211 236.733Z" fill="#363636"/>
<path d="M303.184 240.235H300.422C300.237 240.235 300.087 240.388 300.087 240.577V241.994C300.087 242.183 300.237 242.336 300.422 242.336H303.184C303.369 242.336 303.519 242.183 303.519 241.994V240.577C303.519 240.388 303.369 240.235 303.184 240.235Z" fill="#363636"/>
<path d="M310.047 240.235H307.285C307.1 240.235 306.95 240.388 306.95 240.577V241.994C306.95 242.183 307.1 242.336 307.285 242.336H310.047C310.232 242.336 310.382 242.183 310.382 241.994V240.577C310.382 240.388 310.232 240.235 310.047 240.235Z" fill="#363636"/>
<path d="M316.91 240.235H314.148C313.963 240.235 313.813 240.388 313.813 240.577V241.994C313.813 242.183 313.963 242.336 314.148 242.336H316.91C317.095 242.336 317.245 242.183 317.245 241.994V240.577C317.245 240.388 317.095 240.235 316.91 240.235Z" fill="#363636"/>
<path d="M323.773 240.235H321.012C320.827 240.235 320.677 240.388 320.677 240.577V241.994C320.677 242.183 320.827 242.336 321.012 242.336H323.773C323.958 242.336 324.108 242.183 324.108 241.994V240.577C324.108 240.388 323.958 240.235 323.773 240.235Z" fill="#363636"/>
<path d="M330.636 240.235H327.875C327.69 240.235 327.54 240.388 327.54 240.577V241.994C327.54 242.183 327.69 242.336 327.875 242.336H330.636C330.821 242.336 330.971 242.183 330.971 241.994V240.577C330.971 240.388 330.821 240.235 330.636 240.235Z" fill="#363636"/>
<path d="M337.499 240.235H334.738C334.553 240.235 334.403 240.388 334.403 240.577V241.994C334.403 242.183 334.553 242.336 334.738 242.336H337.499C337.684 242.336 337.834 242.183 337.834 241.994V240.577C337.834 240.388 337.684 240.235 337.499 240.235Z" fill="#363636"/>
<path d="M344.362 240.235H341.601C341.416 240.235 341.266 240.388 341.266 240.577V241.994C341.266 242.183 341.416 242.336 341.601 242.336H344.362C344.547 242.336 344.697 242.183 344.697 241.994V240.577C344.697 240.388 344.547 240.235 344.362 240.235Z" fill="#363636"/>
<path d="M351.225 240.235H348.464C348.279 240.235 348.129 240.388 348.129 240.577V241.994C348.129 242.183 348.279 242.336 348.464 242.336H351.225C351.41 242.336 351.56 242.183 351.56 241.994V240.577C351.56 240.388 351.41 240.235 351.225 240.235Z" fill="#363636"/>
<path d="M358.088 240.235H355.327C355.142 240.235 354.992 240.388 354.992 240.577V241.994C354.992 242.183 355.142 242.336 355.327 242.336H358.088C358.273 242.336 358.423 242.183 358.423 241.994V240.577C358.423 240.388 358.273 240.235 358.088 240.235Z" fill="#363636"/>
<path d="M364.952 240.235H362.19C362.005 240.235 361.855 240.388 361.855 240.577V241.994C361.855 242.183 362.005 242.336 362.19 242.336H364.952C365.137 242.336 365.287 242.183 365.287 241.994V240.577C365.287 240.388 365.137 240.235 364.952 240.235Z" fill="#363636"/>
<path d="M371.815 240.235H369.053C368.868 240.235 368.718 240.388 368.718 240.577V241.994C368.718 242.183 368.868 242.336 369.053 242.336H371.815C372 242.336 372.15 242.183 372.15 241.994V240.577C372.15 240.388 372 240.235 371.815 240.235Z" fill="#363636"/>
<path d="M378.678 240.235H375.916C375.731 240.235 375.581 240.388 375.581 240.577V241.994C375.581 242.183 375.731 242.336 375.916 242.336H378.678C378.863 242.336 379.013 242.183 379.013 241.994V240.577C379.013 240.388 378.863 240.235 378.678 240.235Z" fill="#363636"/>
<path d="M385.541 240.235H382.779C382.594 240.235 382.444 240.388 382.444 240.577V241.994C382.444 242.183 382.594 242.336 382.779 242.336H385.541C385.726 242.336 385.876 242.183 385.876 241.994V240.577C385.876 240.388 385.726 240.235 385.541 240.235Z" fill="#363636"/>
<path d="M392.404 240.235H389.642C389.457 240.235 389.307 240.388 389.307 240.577V241.994C389.307 242.183 389.457 242.336 389.642 242.336H392.404C392.589 242.336 392.739 242.183 392.739 241.994V240.577C392.739 240.388 392.589 240.235 392.404 240.235Z" fill="#363636"/>
<path d="M399.267 240.235H396.505C396.32 240.235 396.17 240.388 396.17 240.577V241.994C396.17 242.183 396.32 242.336 396.505 242.336H399.267C399.452 242.336 399.602 242.183 399.602 241.994V240.577C399.602 240.388 399.452 240.235 399.267 240.235Z" fill="#363636"/>
<path d="M406.13 240.235H403.369C403.184 240.235 403.034 240.388 403.034 240.577V241.994C403.034 242.183 403.184 242.336 403.369 242.336H406.13C406.315 242.336 406.465 242.183 406.465 241.994V240.577C406.465 240.388 406.315 240.235 406.13 240.235Z" fill="#363636"/>
<path d="M360.148 244.438H333.365C333.18 244.438 333.03 244.591 333.03 244.78V246.197C333.03 246.386 333.18 246.539 333.365 246.539H360.148C360.333 246.539 360.483 246.386 360.483 246.197V244.78C360.483 244.591 360.333 244.438 360.148 244.438Z" fill="#363636"/>
<path d="M432.646 407.656L427.355 398.978L426.298 403.937C426.113 404.805 425.927 405.688 425.756 406.564C424.253 405.254 422.654 404.042 421.089 402.879C416.285 399.321 411.483 395.758 406.683 392.19L408.186 401.086C409.113 406.564 410.08 412.153 412.373 417.161C412.627 417.729 412.901 418.289 413.196 418.836H435.529C435.708 418.328 435.833 417.802 435.899 417.267C435.905 417.232 435.907 417.197 435.906 417.161C436.256 413.764 434.417 410.563 432.646 407.656Z" fill="#F0F0F0"/>
<path d="M130.67 407.656L125.379 398.978L124.322 403.937C124.136 404.805 123.951 405.688 123.78 406.564C122.277 405.254 120.677 404.042 119.113 402.879C114.309 399.321 109.507 395.758 104.707 392.19L106.21 401.086C107.137 406.564 108.104 412.153 110.397 417.161C110.651 417.729 110.925 418.289 111.22 418.836H133.553C133.732 418.328 133.857 417.802 133.923 417.267C133.929 417.232 133.931 417.197 133.93 417.161C134.28 413.764 132.441 410.563 130.67 407.656Z" fill="#F0F0F0"/>
<path d="M555.181 419.785L365.931 420C365.714 420 365.506 419.912 365.353 419.756C365.2 419.599 365.114 419.387 365.114 419.166C365.114 418.945 365.2 418.733 365.353 418.576C365.506 418.42 365.714 418.332 365.931 418.332L555.181 418.117C555.397 418.117 555.605 418.205 555.758 418.361C555.912 418.517 555.998 418.73 555.998 418.951C555.998 419.172 555.912 419.384 555.758 419.54C555.605 419.697 555.397 419.785 555.181 419.785Z" fill="#CACACA"/>
<path d="M436.129 75.1938H260.899C260.717 75.1897 260.543 75.113 260.416 74.9801C260.289 74.8471 260.217 74.6686 260.217 74.4826C260.217 74.2967 260.289 74.1182 260.416 73.9852C260.543 73.8523 260.717 73.7756 260.899 73.7714H436.129C436.312 73.7756 436.485 73.8523 436.612 73.9852C436.74 74.1182 436.811 74.2967 436.811 74.4826C436.811 74.6686 436.74 74.8471 436.612 74.9801C436.485 75.113 436.312 75.1897 436.129 75.1938Z" fill="#CACACA"/>
<path d="M272.827 70.1402C275.082 70.1402 276.911 68.2325 276.911 65.8793C276.911 63.526 275.082 61.6184 272.827 61.6184C270.572 61.6184 268.743 63.526 268.743 65.8793C268.743 68.2325 270.572 70.1402 272.827 70.1402Z" fill="#363636"/>
<path d="M286.935 70.1402C289.19 70.1402 291.019 68.2325 291.019 65.8793C291.019 63.526 289.19 61.6184 286.935 61.6184C284.679 61.6184 282.851 63.526 282.851 65.8793C282.851 68.2325 284.679 70.1402 286.935 70.1402Z" fill="#363636"/>
<path d="M301.043 70.1402C303.298 70.1402 305.127 68.2325 305.127 65.8793C305.127 63.526 303.298 61.6184 301.043 61.6184C298.787 61.6184 296.959 63.526 296.959 65.8793C296.959 68.2325 298.787 70.1402 301.043 70.1402Z" fill="#363636"/>
<path d="M427.635 62.6744H417.614C417.415 62.6785 417.226 62.7619 417.087 62.9067C416.948 63.0515 416.87 63.2461 416.87 63.4489C416.87 63.6517 416.948 63.8463 417.087 63.9911C417.226 64.1359 417.415 64.2193 417.614 64.2233H427.635C427.834 64.2193 428.023 64.1359 428.162 63.9911C428.301 63.8463 428.379 63.6517 428.379 63.4489C428.379 63.2461 428.301 63.0515 428.162 62.9067C428.023 62.7619 427.834 62.6785 427.635 62.6744Z" fill="#363636"/>
<path d="M427.635 65.5815H417.614C417.415 65.5855 417.226 65.6689 417.087 65.8137C416.948 65.9585 416.87 66.1532 416.87 66.3559C416.87 66.5587 416.948 66.7534 417.087 66.8982C417.226 67.043 417.415 67.1263 417.614 67.1304H427.635C427.834 67.1263 428.023 67.043 428.162 66.8982C428.301 66.7534 428.379 66.5587 428.379 66.3559C428.379 66.1532 428.301 65.9585 428.162 65.8137C428.023 65.6689 427.834 65.5855 427.635 65.5815Z" fill="#363636"/>
<path d="M427.635 68.4848H417.614C417.415 68.4888 417.226 68.5722 417.087 68.717C416.948 68.8618 416.87 69.0564 416.87 69.2592C416.87 69.462 416.948 69.6566 417.087 69.8014C417.226 69.9462 417.415 70.0296 417.614 70.0336H427.635C427.834 70.0296 428.023 69.9462 428.162 69.8014C428.301 69.6566 428.379 69.462 428.379 69.2592C428.379 69.0564 428.301 68.8618 428.162 68.717C428.023 68.5722 427.834 68.4888 427.635 68.4848Z" fill="#363636"/>
<path d="M362.662 113.942H340.766C339.122 113.942 337.789 115.302 337.789 116.981C337.789 118.659 339.122 120.02 340.766 120.02H362.662C364.307 120.02 365.64 118.659 365.64 116.981C365.64 115.302 364.307 113.942 362.662 113.942Z" fill="#006E62"/>
<path d="M376.807 126.099H326.621C324.977 126.099 323.644 127.459 323.644 129.138C323.644 130.817 324.977 132.177 326.621 132.177H376.807C378.452 132.177 379.785 130.817 379.785 129.138C379.785 127.459 378.452 126.099 376.807 126.099Z" fill="#E6E6E6"/>
<path d="M376.807 138.256H326.621C324.977 138.256 323.644 139.617 323.644 141.295C323.644 142.974 324.977 144.334 326.621 144.334H376.807C378.452 144.334 379.785 142.974 379.785 141.295C379.785 139.617 378.452 138.256 376.807 138.256Z" fill="#E6E6E6"/>
<path d="M278.812 184.899C278.816 187.402 278.379 189.887 277.521 192.232L258.27 192.233C257.395 192.231 256.557 191.876 255.938 191.244C255.319 190.612 254.971 189.756 254.969 188.863V164.151C256.045 163.974 257.133 163.885 258.222 163.885C260.926 163.885 263.604 164.428 266.102 165.484C268.6 166.54 270.87 168.088 272.781 170.039C274.693 171.991 276.21 174.307 277.245 176.857C278.279 179.406 278.812 182.139 278.812 184.899Z" fill="#E6E6E6"/>
<path d="M240.829 204.437C240.541 212.947 222.806 235.908 213.479 239.2C211.894 239.761 210.968 240.069 210.968 240.069L168.41 226.928C161.526 231.061 140.992 233.162 124.143 234.213C110.732 235.047 99.6483 235.215 99.6483 235.215C95.692 265.924 87.8952 295.299 74.7422 322.814L58.9571 320.012L73.8695 217.521C74.1916 215.308 75.1437 213.24 76.6077 211.575C78.0716 209.909 79.9829 208.719 82.1039 208.153L189.376 179.514C189.376 179.514 195.292 178.422 207.769 184.565C228.311 194.679 241.035 198.245 240.829 204.437Z" fill="#363636"/>
<path d="M203.941 397.825L195.925 402.087L176 372.558L187.832 366.267L203.941 397.825Z" fill="#A0616A"/>
<path d="M208.582 406.21L183.931 419.318L183.768 419C182.442 416.403 182.182 413.375 183.043 410.582C183.905 407.788 185.819 405.459 188.363 404.105L191.087 398.224L201.268 397.243L203.42 396.099L208.582 406.21Z" fill="#363636"/>
<path d="M220.331 202.79C223.929 210.473 218.597 239.2 211.817 246.518L210.017 247.768L209.408 248.091C205.34 262.134 161.69 303.206 161.69 303.206C176.434 322.376 185.623 345.946 191.486 372.15L178.388 378.326L130.397 305.205C129.14 303.29 128.48 301.031 128.505 298.726C128.53 296.421 129.238 294.178 130.535 292.291L150.114 263.828L182.016 200.759C204.812 200.041 217.71 197.202 220.331 202.79Z" fill="#363636"/>
<path d="M239.726 207.426C170.825 196.732 164.548 187.115 163.874 187.286L163.276 187.438L173.258 170.217L176.92 165.803L174.103 163.748L175.221 155.214C176.092 151.757 176.798 147.686 176.422 147.14C175.646 146.263 173.917 144.668 173.9 144.652L173.677 144.447L176.272 138.267L179.747 88.8614L188.707 70.6313L207.2 59.4422L223.5 59.6436L237.824 73.204C243.906 76.1898 248.852 81.1401 251.896 87.2872C254.941 93.4343 255.913 100.435 254.662 107.203L247.386 146.428L244.709 166.645L249.077 171.102L246.359 173.876L244.743 183.321L246.398 194.017C247.692 203.736 241.94 204.316 241.515 204.437C241.49 204.444 240.24 207.783 240.187 207.783C240.055 207.783 240.044 207.475 239.726 207.426Z" fill="#006E62"/>
<path d="M236.109 246.424C236.895 245.639 237.504 244.688 237.892 243.638C238.28 242.587 238.437 241.463 238.353 240.344C238.269 239.224 237.945 238.138 237.405 237.16C236.865 236.182 236.121 235.337 235.227 234.684L242.785 208.51L229.497 212.652L224.357 236.872C223.382 238.479 223.019 240.395 223.336 242.257C223.652 244.119 224.627 245.798 226.076 246.975C227.524 248.152 229.346 248.747 231.195 248.645C233.044 248.543 234.792 247.753 236.109 246.424Z" fill="#A0616A"/>
<path d="M237.336 228.262L222.973 221.687L234.494 172.859L213.039 119.704C211.979 117.076 211.498 114.243 211.631 111.404C211.764 108.566 212.508 105.792 213.81 103.28C215.111 100.768 216.939 98.5793 219.162 96.8692C221.386 95.1591 223.951 93.9695 226.676 93.385C231.598 92.3349 236.728 93.3207 240.939 96.126C245.151 98.9313 248.1 103.327 249.139 108.349L262.188 171.717L237.336 228.262Z" fill="#006E62"/>
<path d="M180.626 41.7429L185.876 19.4589C186.056 18.6967 186.526 18.0386 187.181 17.6291C187.836 17.2197 188.624 17.0922 189.371 17.2747L194.13 18.4424C194.876 18.6266 195.521 19.1056 195.922 19.7743C196.323 20.443 196.448 21.2469 196.27 22.0095L191.02 44.2935C190.839 45.0557 190.37 45.7138 189.715 46.1232C189.06 46.5327 188.272 46.6602 187.525 46.4777L182.766 45.31C182.019 45.1258 181.375 44.6468 180.973 43.9781C180.572 43.3094 180.447 42.5055 180.626 41.7429Z" fill="#363636"/>
<path d="M189.66 18.5479C189.257 18.4496 188.833 18.5183 188.48 18.739C188.127 18.9596 187.874 19.3142 187.777 19.7249L182.527 42.0089C182.43 42.4199 182.498 42.8531 182.714 43.2135C182.93 43.5738 183.278 43.8319 183.68 43.9312L188.439 45.099C188.841 45.1973 189.266 45.1286 189.619 44.9079C189.972 44.6873 190.225 44.3327 190.322 43.9219L195.572 21.6379C195.668 21.2269 195.601 20.7938 195.385 20.4334C195.169 20.073 194.821 19.8149 194.419 19.7157L189.66 18.5479Z" fill="#006E62"/>
<path d="M211.677 55.7959C224.548 55.7959 234.982 45.1466 234.982 32.0101C234.982 18.8736 224.548 8.22436 211.677 8.22436C198.806 8.22436 188.372 18.8736 188.372 32.0101C188.372 45.1466 198.806 55.7959 211.677 55.7959Z" fill="#A0616A"/>
<path d="M222.426 47.9142L223.266 43.0965C223.781 39.9016 223.245 36.6223 221.741 33.7714C220.237 30.9204 217.85 28.6585 214.953 27.3393L214.233 26.9839L214.826 26.6604C215.015 26.5575 215.162 26.3904 215.243 26.1882C215.323 25.9859 215.332 25.7613 215.267 25.5533C215.202 25.3452 215.068 25.1669 214.888 25.0492C214.708 24.9315 214.493 24.8819 214.281 24.9089L213.607 24.9944C213.148 25.0518 212.683 24.9724 212.267 24.7658C211.851 24.5593 211.502 24.2344 211.263 23.8303C211.024 23.4262 210.905 22.9601 210.919 22.4883C210.934 22.0165 211.081 21.559 211.345 21.171C209.018 22.1549 206.536 22.6996 204.019 22.7788C200.376 22.7508 197.211 20.9384 195.955 18.1612C195.649 17.4707 195.461 16.7321 195.399 15.9771C191.551 17.5247 189.476 22.1638 189.454 22.2124L188.316 24.8036L188.803 22.0079C188.818 21.9227 190.308 13.4557 192.467 8.20259C194.789 2.55448 204.455 -0.422461 218.975 0.0484976C233.158 0.503381 236.305 17.0079 236.575 18.6048C240.604 22.5616 239.14 30.0532 237.901 34.1852C235.894 40.8768 231.934 47.5352 229.751 47.8858C229.556 47.9232 229.354 47.9008 229.171 47.8214C228.988 47.742 228.833 47.6091 228.723 47.4394C228.505 47.0849 228.215 46.7818 227.873 46.5502C227.532 46.3185 227.146 46.1636 226.741 46.0957C224.977 45.8398 223.157 47.3153 223.139 47.33L222.426 47.9142Z" fill="#363636"/>
<path d="M190.064 419.785L0.814813 420C0.598495 419.999 0.391255 419.911 0.238516 419.755C0.0857765 419.599 0 419.387 0 419.166C0 418.945 0.0857765 418.733 0.238516 418.577C0.391255 418.421 0.598495 418.333 0.814813 418.332L190.064 418.117C190.281 418.117 190.489 418.205 190.642 418.361C190.795 418.517 190.882 418.73 190.882 418.951C190.882 419.172 190.795 419.384 190.642 419.54C190.489 419.697 190.281 419.785 190.064 419.785Z" fill="#CACACA"/>
</svg>
