<svg width="609" height="421" viewBox="0 0 609 421" fill="none" xmlns="http://www.w3.org/2000/svg">
<rect width="199" height="421" fill="#006E62"/>
<path d="M602.442 290.433H178.536C176.798 290.431 175.131 289.731 173.901 288.486C172.672 287.241 171.98 285.553 171.978 283.793V47.6405C171.98 45.8799 172.672 44.192 173.901 42.9471C175.131 41.7022 176.798 41.002 178.536 41H602.442C604.18 41.002 605.847 41.7023 607.077 42.9472C608.306 44.192 608.998 45.8799 609 47.6405V283.793C608.998 285.553 608.306 287.241 607.077 288.486C605.847 289.731 604.18 290.431 602.442 290.433Z" fill="#E6E6E6"/>
<path d="M593.499 281.378H187.48C185.741 281.376 184.074 280.676 182.844 279.431C181.615 278.186 180.923 276.498 180.921 274.737V56.6956C180.923 54.9351 181.615 53.2472 182.844 52.0023C184.074 50.7574 185.741 50.0572 187.48 50.0552H593.499C595.237 50.0572 596.904 50.7574 598.134 52.0023C599.363 53.2472 600.055 54.9351 600.057 56.6956V274.737C600.055 276.498 599.363 278.186 598.134 279.431C596.904 280.676 595.237 281.376 593.499 281.378V281.378Z" fill="white"/>
<path d="M301.093 184.591H224.707C223.863 184.59 223.054 184.25 222.458 183.646C221.861 183.042 221.525 182.222 221.524 181.368V100.819C221.525 99.9642 221.861 99.1451 222.458 98.5409C223.054 97.9368 223.863 97.5969 224.707 97.5959H301.093C301.937 97.597 302.746 97.9368 303.343 98.5409C303.939 99.1451 304.275 99.9642 304.276 100.819V181.368C304.275 182.222 303.939 183.042 303.343 183.646C302.746 184.25 301.937 184.59 301.093 184.591V184.591ZM224.707 98.885C224.201 98.8856 223.715 99.0895 223.357 99.4519C222.999 99.8144 222.798 100.306 222.798 100.819V181.368C222.798 181.881 222.999 182.372 223.357 182.735C223.715 183.097 224.201 183.301 224.707 183.302H301.093C301.599 183.301 302.085 183.097 302.443 182.735C302.801 182.372 303.002 181.881 303.003 181.368V100.819C303.002 100.306 302.801 99.8144 302.443 99.4519C302.085 99.0894 301.599 98.8856 301.093 98.885H224.707Z" fill="#363636"/>
<path d="M428.682 184.591H352.296C351.452 184.59 350.643 184.25 350.047 183.646C349.45 183.042 349.114 182.222 349.113 181.368V100.819C349.114 99.9642 349.45 99.1451 350.047 98.5409C350.643 97.9368 351.452 97.597 352.296 97.5959H428.682C429.526 97.597 430.335 97.9368 430.931 98.5409C431.528 99.1451 431.864 99.9642 431.865 100.819V181.368C431.864 182.222 431.528 183.042 430.931 183.646C430.335 184.25 429.526 184.59 428.682 184.591ZM352.296 98.885C351.79 98.8856 351.304 99.0895 350.946 99.452C350.588 99.8145 350.387 100.306 350.386 100.819V181.368C350.387 181.881 350.588 182.372 350.946 182.735C351.304 183.097 351.79 183.301 352.296 183.302H428.682C429.188 183.301 429.674 183.097 430.032 182.735C430.39 182.372 430.591 181.881 430.592 181.368V100.819C430.591 100.306 430.39 99.8145 430.032 99.452C429.674 99.0895 429.188 98.8856 428.682 98.885H352.296Z" fill="#363636"/>
<path d="M556.271 184.591H479.885C479.041 184.59 478.232 184.25 477.635 183.646C477.039 183.042 476.703 182.222 476.702 181.368V100.819C476.703 99.9642 477.039 99.1451 477.635 98.5409C478.232 97.9368 479.041 97.597 479.885 97.5959H556.271C557.115 97.597 557.924 97.9368 558.52 98.5409C559.117 99.1451 559.453 99.9642 559.454 100.819V181.368C559.453 182.222 559.117 183.042 558.52 183.646C557.924 184.25 557.115 184.59 556.271 184.591V184.591ZM479.885 98.885C479.379 98.8856 478.893 99.0894 478.535 99.4519C478.177 99.8144 477.976 100.306 477.975 100.819V181.368C477.976 181.881 478.177 182.372 478.535 182.735C478.893 183.097 479.379 183.301 479.885 183.302H556.271C556.777 183.301 557.263 183.097 557.621 182.735C557.979 182.372 558.18 181.881 558.181 181.368V100.819C558.18 100.306 557.979 99.8144 557.621 99.4519C557.263 99.0894 556.777 98.8856 556.271 98.885H479.885Z" fill="#363636"/>
<path d="M248.15 233.837C248.434 233.837 248.715 233.781 248.977 233.671C249.239 233.561 249.478 233.4 249.678 233.197C249.879 232.994 250.038 232.753 250.147 232.487C250.256 232.222 250.312 231.937 250.312 231.65C250.312 231.363 250.256 231.078 250.148 230.813C250.039 230.547 249.88 230.306 249.68 230.103C249.479 229.9 249.241 229.738 248.979 229.628C248.717 229.518 248.436 229.461 248.152 229.461H228.761C228.188 229.461 227.639 229.692 227.233 230.102C226.828 230.512 226.601 231.069 226.601 231.649C226.601 232.229 226.828 232.786 227.233 233.196C227.639 233.607 228.188 233.837 228.761 233.837H248.15Z" fill="#E6E6E6"/>
<path d="M297.039 220.947C297.612 220.948 298.162 220.718 298.568 220.309C298.974 219.899 299.203 219.343 299.204 218.763C299.205 218.182 298.978 217.626 298.574 217.214C298.169 216.803 297.62 216.572 297.047 216.571H228.761C228.189 216.572 227.64 216.803 227.236 217.213C226.831 217.623 226.604 218.179 226.604 218.759C226.604 219.338 226.831 219.894 227.236 220.304C227.64 220.715 228.189 220.946 228.761 220.947H297.039Z" fill="#E6E6E6"/>
<path d="M375.739 233.837C376.312 233.837 376.862 233.607 377.267 233.196C377.672 232.786 377.9 232.229 377.9 231.649C377.9 231.069 377.672 230.512 377.267 230.102C376.862 229.692 376.312 229.461 375.739 229.461H356.35C355.777 229.461 355.228 229.692 354.822 230.102C354.417 230.512 354.189 231.069 354.189 231.649C354.189 232.229 354.417 232.786 354.822 233.196C355.228 233.607 355.777 233.837 356.35 233.837H375.739Z" fill="#E6E6E6"/>
<path d="M424.628 220.947C425.201 220.946 425.749 220.715 426.154 220.304C426.558 219.894 426.785 219.338 426.785 218.759C426.785 218.179 426.558 217.623 426.154 217.213C425.749 216.803 425.201 216.572 424.628 216.571H356.35C355.778 216.572 355.229 216.803 354.825 217.213C354.42 217.623 354.193 218.179 354.193 218.759C354.193 219.338 354.42 219.894 354.825 220.304C355.229 220.715 355.778 220.946 356.35 220.947H424.628Z" fill="#E6E6E6"/>
<path d="M503.328 233.837C503.901 233.837 504.45 233.607 504.856 233.196C505.261 232.786 505.489 232.229 505.489 231.649C505.489 231.069 505.261 230.512 504.856 230.102C504.45 229.692 503.901 229.461 503.328 229.461H483.939C483.655 229.461 483.374 229.518 483.112 229.628C482.85 229.737 482.612 229.898 482.411 230.101C482.21 230.305 482.051 230.546 481.942 230.811C481.833 231.076 481.777 231.361 481.777 231.648C481.777 231.936 481.833 232.22 481.941 232.486C482.05 232.751 482.209 232.992 482.41 233.196C482.61 233.399 482.848 233.56 483.11 233.67C483.373 233.78 483.653 233.837 483.937 233.837H503.328Z" fill="#E6E6E6"/>
<path d="M552.217 220.947C552.79 220.946 553.338 220.715 553.743 220.304C554.147 219.894 554.374 219.338 554.374 218.759C554.374 218.179 554.147 217.623 553.743 217.213C553.338 216.803 552.79 216.572 552.217 216.571H483.939C483.655 216.57 483.374 216.626 483.112 216.736C482.85 216.845 482.611 217.006 482.41 217.209C482.209 217.412 482.049 217.652 481.94 217.918C481.831 218.183 481.775 218.467 481.774 218.755C481.774 219.042 481.829 219.327 481.937 219.592C482.045 219.858 482.204 220.099 482.404 220.303C482.605 220.506 482.843 220.668 483.105 220.778C483.367 220.889 483.647 220.946 483.931 220.947H552.217Z" fill="#E6E6E6"/>
<path d="M297.039 208.269C297.612 208.27 298.162 208.039 298.568 207.629C298.973 207.219 299.201 206.663 299.201 206.082C299.201 205.502 298.974 204.945 298.569 204.535C298.164 204.125 297.614 203.894 297.041 203.894H228.761C228.188 203.894 227.639 204.124 227.233 204.534C226.828 204.945 226.601 205.501 226.601 206.081C226.601 206.662 226.828 207.218 227.233 207.628C227.639 208.039 228.188 208.269 228.761 208.269H297.039Z" fill="#006E62"/>
<path d="M424.628 208.269C425.201 208.269 425.751 208.039 426.156 207.628C426.561 207.218 426.789 206.662 426.789 206.081C426.789 205.501 426.561 204.945 426.156 204.534C425.751 204.124 425.201 203.894 424.628 203.894H356.35C355.777 203.894 355.228 204.124 354.822 204.534C354.417 204.945 354.189 205.501 354.189 206.081C354.189 206.662 354.417 207.218 354.822 207.628C355.228 208.039 355.777 208.269 356.35 208.269H424.628Z" fill="#006E62"/>
<path d="M552.217 208.269C552.79 208.269 553.34 208.039 553.745 207.628C554.15 207.218 554.378 206.662 554.378 206.081C554.378 205.501 554.15 204.945 553.745 204.534C553.34 204.124 552.79 203.894 552.217 203.894H483.939C483.366 203.893 482.816 204.124 482.411 204.534C482.005 204.944 481.778 205.5 481.777 206.081C481.777 206.661 482.005 207.217 482.41 207.628C482.815 208.038 483.364 208.269 483.937 208.269H552.217Z" fill="#006E62"/>
<path d="M284.817 168.98C285.389 168.979 285.938 168.748 286.342 168.338C286.747 167.928 286.974 167.372 286.974 166.792C286.974 166.213 286.747 165.657 286.342 165.247C285.938 164.836 285.389 164.605 284.817 164.604H240.984C240.7 164.604 240.419 164.66 240.156 164.769C239.894 164.879 239.656 165.04 239.455 165.242C239.254 165.445 239.094 165.686 238.985 165.951C238.876 166.217 238.819 166.501 238.819 166.788C238.818 167.076 238.874 167.36 238.982 167.626C239.09 167.891 239.249 168.133 239.449 168.336C239.649 168.54 239.887 168.702 240.149 168.812C240.411 168.922 240.692 168.98 240.976 168.98H284.817Z" fill="#E6E6E6"/>
<path d="M284.817 156.09C285.389 156.089 285.938 155.858 286.342 155.447C286.747 155.037 286.974 154.481 286.974 153.902C286.974 153.322 286.747 152.766 286.342 152.356C285.938 151.946 285.389 151.715 284.817 151.714H240.984C240.7 151.713 240.419 151.769 240.156 151.879C239.894 151.988 239.656 152.149 239.455 152.352C239.254 152.555 239.094 152.796 238.985 153.061C238.876 153.326 238.819 153.61 238.819 153.898C238.818 154.185 238.874 154.47 238.982 154.735C239.09 155.001 239.249 155.242 239.449 155.446C239.649 155.649 239.887 155.811 240.149 155.922C240.411 156.032 240.692 156.089 240.976 156.09H284.817Z" fill="#E6E6E6"/>
<path d="M262.9 140.976C270.474 140.976 276.613 134.76 276.613 127.091C276.613 119.423 270.474 113.207 262.9 113.207C255.327 113.207 249.188 119.423 249.188 127.091C249.188 134.76 255.327 140.976 262.9 140.976Z" fill="#006E62"/>
<path d="M412.406 168.98C412.978 168.979 413.527 168.748 413.931 168.338C414.336 167.928 414.563 167.372 414.563 166.792C414.563 166.213 414.336 165.657 413.931 165.247C413.527 164.836 412.978 164.605 412.406 164.604H368.573C368 164.605 367.451 164.836 367.047 165.247C366.643 165.657 366.416 166.213 366.416 166.792C366.416 167.372 366.643 167.928 367.047 168.338C367.451 168.748 368 168.979 368.573 168.98H412.406Z" fill="#E6E6E6"/>
<path d="M412.406 156.09C412.978 156.089 413.527 155.858 413.931 155.447C414.336 155.037 414.563 154.481 414.563 153.902C414.563 153.322 414.336 152.766 413.931 152.356C413.527 151.946 412.978 151.715 412.406 151.714H368.573C368 151.715 367.451 151.946 367.047 152.356C366.643 152.766 366.416 153.322 366.416 153.902C366.416 154.481 366.643 155.037 367.047 155.447C367.451 155.858 368 156.089 368.573 156.09H412.406Z" fill="#E6E6E6"/>
<path d="M390.489 140.976C398.063 140.976 404.202 134.76 404.202 127.091C404.202 119.423 398.063 113.207 390.489 113.207C382.916 113.207 376.776 119.423 376.776 127.091C376.776 134.76 382.916 140.976 390.489 140.976Z" fill="#006E62"/>
<path d="M539.995 168.98C540.278 168.981 540.56 168.925 540.822 168.815C541.084 168.706 541.323 168.545 541.524 168.342C541.725 168.139 541.884 167.898 541.993 167.633C542.103 167.368 542.159 167.084 542.159 166.796C542.16 166.509 542.105 166.224 541.997 165.959C541.888 165.693 541.73 165.452 541.529 165.248C541.329 165.044 541.091 164.883 540.829 164.772C540.567 164.662 540.286 164.605 540.003 164.604H496.161C495.589 164.605 495.04 164.836 494.636 165.247C494.232 165.657 494.004 166.213 494.004 166.792C494.004 167.372 494.232 167.928 494.636 168.338C495.04 168.748 495.589 168.979 496.161 168.98H539.995Z" fill="#E6E6E6"/>
<path d="M539.995 156.09C540.278 156.09 540.56 156.034 540.822 155.925C541.084 155.815 541.323 155.654 541.524 155.452C541.725 155.249 541.884 155.008 541.993 154.743C542.103 154.477 542.159 154.193 542.159 153.906C542.16 153.618 542.105 153.334 541.997 153.068C541.888 152.803 541.73 152.561 541.529 152.358C541.329 152.154 541.091 151.992 540.829 151.882C540.567 151.772 540.286 151.714 540.003 151.714H496.161C495.589 151.715 495.04 151.946 494.636 152.356C494.232 152.766 494.004 153.322 494.004 153.902C494.004 154.481 494.232 155.037 494.636 155.447C495.04 155.858 495.589 156.089 496.161 156.09H539.995Z" fill="#E6E6E6"/>
<path d="M518.078 140.976C525.651 140.976 531.791 134.76 531.791 127.091C531.791 119.423 525.651 113.207 518.078 113.207C510.505 113.207 504.365 119.423 504.365 127.091C504.365 134.76 510.505 140.976 518.078 140.976Z" fill="#006E62"/>
<path d="M45.9252 412.399H54.0381L57.8974 380.714L45.9238 380.715L45.9252 412.399Z" fill="#FFB6B6"/>
<path d="M43.8555 409.717L59.8326 409.716H59.8333C62.5336 409.716 65.1233 410.803 67.0328 412.736C68.9422 414.669 70.015 417.291 70.0152 420.026V420.361L43.856 420.362L43.8555 409.717Z" fill="#363636"/>
<path d="M73.7181 412.399H81.8311L85.6904 380.714L73.7168 380.715L73.7181 412.399Z" fill="#FFB6B6"/>
<path d="M71.6484 409.717L87.6256 409.717H87.6262C90.3266 409.717 92.9163 410.803 94.8257 412.736C96.7352 414.67 97.808 417.292 97.8082 420.026V420.361L71.6489 420.362L71.6484 409.717Z" fill="#363636"/>
<path d="M104.547 274.371L84.728 398.317L71.4932 397.647L71.8214 283.838L104.547 274.371Z" fill="#363636"/>
<path d="M51.1179 236.502L99.2039 237.178L104.547 274.371L71.8216 289.924L57.5968 394.967L45.0237 394.297L40.4321 264.227L51.1179 236.502Z" fill="#363636"/>
<path d="M79.836 140.478C87.9507 140.478 94.5289 133.817 94.5289 125.601C94.5289 117.384 87.9507 110.724 79.836 110.724C71.7213 110.724 65.1431 117.384 65.1431 125.601C65.1431 133.817 71.7213 140.478 79.836 140.478Z" fill="#FFB9B9"/>
<path d="M86.7135 149.064L95.1971 160.088L91.1895 244.616L59.8004 243.94L54.4575 170.232L61.1358 151.298L63.5525 147.054L86.7135 149.064Z" fill="#E4E4E4"/>
<path d="M101.208 191.871L108.554 220.273L101.208 248.674L113.229 264.904L123.915 213.51C123.915 213.51 115.9 171.584 115.233 166.851C114.565 162.117 113.229 161.441 113.229 161.441L107.886 162.117L101.208 191.871Z" fill="#363636"/>
<path d="M47.7791 202.69L43.1039 211.482L41.7678 226.359L44.4393 243.264L35.0895 258.818L25.7397 216.215L35.7572 161.441H39.7647L47.7791 202.69Z" fill="#363636"/>
<path d="M67.1291 129.454L66.781 135.468C66.781 135.468 62.4714 125.601 61.8036 115.457C61.1357 105.314 72.4894 103.285 79.1679 102.609C85.8465 101.933 97.2002 106.666 97.2002 112.076C97.2002 117.486 85.1787 116.134 80.5037 114.781C75.8287 113.429 73.8251 124.925 73.8251 124.925L71.1536 125.601L67.1291 129.454Z" fill="#363636"/>
<path d="M103.211 201.338L100.54 227.035L105.883 242.588L109.222 257.465C109.222 257.465 109.222 271.666 95.8649 272.342C82.5077 273.018 43.7718 271.666 43.7718 271.666C43.7718 271.666 38.4289 270.99 33.7539 260.17C29.0789 249.35 43.1039 239.207 43.1039 239.207L47.1111 225.006L45.7754 207.424L36.4253 161.441L64.1415 146.902L71.154 216.215L86.1809 148.931L91.1898 152.65L112.561 161.441L103.211 201.338Z" fill="#363636"/>
<path d="M170.556 421H0V419.589H170.809L170.556 421Z" fill="#363636"/>
</svg>
