<svg width="105" height="105" viewBox="0 0 105 105" fill="none" xmlns="http://www.w3.org/2000/svg">
<path d="M52.5 0C23.5069 0 0 23.5069 0 52.5C0 81.4931 23.5069 105 52.5 105C81.4931 105 105 81.4931 105 52.5C105 23.5069 81.4931 0 52.5 0ZM78.2862 35.9669L69.6675 76.5669C69.0331 79.4456 67.3181 80.1456 64.925 78.7894L51.8 69.1206L45.4737 75.2194C44.8612 76.0069 43.9119 76.51 42.8488 76.51C42.84 76.51 42.8356 76.51 42.8269 76.51L43.7587 63.1487L68.0837 41.1775C69.1337 40.2456 67.8475 39.7162 66.4519 40.6481L36.4 59.5744L23.45 55.5319C20.65 54.6437 20.5712 52.7319 24.0406 51.3581L74.6419 31.8544C76.9956 30.9969 79.0431 32.4144 78.2819 35.9712L78.2862 35.9669Z" fill="#006E62"/>
</svg>
