<svg width="740" height="531" viewBox="0 0 740 531" fill="none" xmlns="http://www.w3.org/2000/svg">
<path d="M542.366 0.306881H0.232137V347.513H542.366V0.306881Z" fill="#E6E6E6"/>
<path d="M526.862 43.855H15.7333V326.972H526.862V43.855Z" fill="white"/>
<path d="M542.134 0H0V23.0316H542.134V0Z" fill="#006E62"/>
<path d="M17.1163 16.0448C19.4741 16.0448 21.3855 14.1334 21.3855 11.7756C21.3855 9.41787 19.4741 7.50652 17.1163 7.50652C14.7586 7.50652 12.8472 9.41787 12.8472 11.7756C12.8472 14.1334 14.7586 16.0448 17.1163 16.0448Z" fill="white"/>
<path d="M33.3186 16.0448C35.6764 16.0448 37.5877 14.1334 37.5877 11.7756C37.5877 9.41787 35.6764 7.50652 33.3186 7.50652C30.9608 7.50652 29.0495 9.41787 29.0495 11.7756C29.0495 14.1334 30.9608 16.0448 33.3186 16.0448Z" fill="white"/>
<path d="M49.522 16.0448C51.8797 16.0448 53.7911 14.1334 53.7911 11.7756C53.7911 9.41787 51.8797 7.50652 49.522 7.50652C47.1642 7.50652 45.2528 9.41787 45.2528 11.7756C45.2528 14.1334 47.1642 16.0448 49.522 16.0448Z" fill="white"/>
<path d="M178.591 67.1423H78.6217V175.6H178.591V67.1423Z" fill="#E6E6E6"/>
<path d="M321.282 67.1423H221.313V175.6H321.282V67.1423Z" fill="#E6E6E6"/>
<path d="M463.971 67.1423H364.002V175.6H463.971V67.1423Z" fill="#E6E6E6"/>
<path d="M178.591 195.231H78.6217V303.689H178.591V195.231Z" fill="#E6E6E6"/>
<path d="M321.282 195.231H221.313V303.689H321.282V195.231Z" fill="#E6E6E6"/>
<path d="M463.971 195.231H364.002V303.689H463.971V195.231Z" fill="#E6E6E6"/>
<path d="M245.475 223.105L263.741 215.884L265.865 251.99C265.865 251.99 269.688 263.034 268.414 267.282C268.414 267.282 269.263 274.504 267.139 274.928C265.015 275.353 259.066 276.203 258.646 275.778C258.226 275.352 258.221 274.078 258.221 274.078C258.221 274.078 253.973 277.052 253.549 280.45C253.549 280.45 235.708 285.972 235.283 280.874C234.858 275.777 244.203 271.529 244.203 271.529L251.425 260.485L245.475 223.105Z" fill="white"/>
<path d="M284.132 223.105L302.395 215.884L304.519 251.99C304.519 251.99 308.341 263.034 307.067 267.282C307.067 267.282 307.917 274.504 305.793 274.928C303.668 275.353 297.72 276.203 297.3 275.778C296.879 275.352 296.875 274.078 296.875 274.078C296.875 274.078 292.627 277.052 292.202 280.45C292.202 280.45 274.361 285.972 273.937 280.874C273.512 275.777 282.857 271.529 282.857 271.529L290.078 260.485L284.132 223.105Z" fill="white"/>
<path d="M285.916 83.6755C285.916 83.6755 282.027 94.543 286.533 99.4436L282.776 112.354C282.776 112.354 296.124 152.398 292.311 157.991C292.311 157.991 278.073 165.11 249.595 155.448L261.163 110.573L259.51 91.6319L261.798 82.7329L266.883 82.2284C266.883 82.2284 263.832 93.6693 269.426 95.4495C275.019 97.2296 280.476 82.5143 280.476 82.5143L285.916 83.6755Z" fill="#363636"/>
<path d="M106.305 153.827L111.213 155.835L134.638 125.048L142 161.189L146.908 160.297C150.056 129.138 152.626 97.3574 149.474 82.3259L131.291 81.5447L123.037 107.873L119.021 125.721L106.305 153.827Z" fill="white"/>
<path d="M404.191 82.0795C404.191 82.0795 397.492 91.3914 397.819 95.1493C398.146 98.9072 402.394 160.172 402.394 160.172L412.36 160.662L409.417 116.551L411.867 104.625L417.912 160.172L430.165 160.499L419.22 88.4517L417.096 82.0804L404.191 82.0795Z" fill="white"/>
<path d="M442.049 232.097C440.271 229.963 437.213 228.809 434.278 228.185C434.362 227.919 425.349 226.056 425.196 226.439L421.798 223.733L411.357 229.154L405.49 225.16L402.765 226.127C402.876 225.646 394.305 227.131 394.305 227.131C392.668 227.189 390.577 227.292 388.236 227.472C380.038 228.103 379.406 249.335 379.406 249.335C383.178 247.792 387.2 246.95 391.274 246.85L393.489 272.244C404.886 271.267 416.838 272.404 429.227 275.187L435.036 255.225L448.565 249.964C448.565 249.964 446.254 237.141 442.049 232.097Z" fill="#363636"/>
<path d="M151.728 220.004C150.263 218.246 147.744 217.295 145.325 216.781C145.397 216.561 137.968 215.027 137.841 215.343L135.041 213.113L126.44 217.58L121.606 214.29L119.361 215.087C119.452 214.691 112.39 215.913 112.39 215.913C111.044 215.962 109.317 216.046 107.389 216.195C100.634 216.715 100.115 234.207 100.115 234.207C103.222 232.936 106.536 232.242 109.893 232.16L111.719 283.381C121.109 282.575 130.957 283.513 141.162 285.806L145.948 239.062L157.096 234.727C157.096 234.727 155.192 224.162 151.728 220.004Z" fill="white"/>
<path d="M630.194 233.638H678.124V207.991C678.124 201.636 675.599 195.54 671.105 191.046C666.61 186.551 660.515 184.027 654.159 184.027C647.803 184.027 641.708 186.551 637.213 191.046C632.719 195.54 630.194 201.636 630.194 207.991V233.638Z" fill="#363636"/>
<path d="M608.799 518.984H598.491L593.586 479.218H608.801L608.799 518.984Z" fill="#FFB6B6"/>
<path d="M611.427 515.618H591.124C587.693 515.618 584.402 516.981 581.976 519.407C579.55 521.834 578.187 525.124 578.186 528.555V528.975H611.427V515.618Z" fill="#363636"/>
<path d="M732.031 505.227L723.054 510.295L699.233 478.08L712.483 470.6L732.031 505.227Z" fill="#FFB6B6"/>
<path d="M732.666 501.003L714.986 510.981C711.998 512.668 709.803 515.473 708.883 518.779C707.963 522.084 708.394 525.62 710.081 528.608L710.288 528.974L739.234 512.633L732.666 501.003Z" fill="#363636"/>
<path d="M666.146 340.154L666.942 344.132C666.942 344.132 669.328 346.518 668.135 347.711C666.942 348.905 667.339 354.474 667.339 354.474C668.007 364.628 681.275 421.69 683.648 432.834C683.648 432.834 701.945 444.767 716.265 468.235C730.584 491.703 730.98 497.67 730.98 497.67L715.072 504.433L675.299 456.303C675.299 456.303 664.162 449.541 660.183 443.575C656.205 437.609 631.54 375.953 631.54 375.953L617.615 440.392C617.615 440.392 618.41 463.86 614.831 478.975C612.63 488.514 611.299 498.233 610.853 508.013L592.158 506.024C592.158 506.024 593.352 449.541 595.34 443.574C595.34 443.574 586.987 374.76 603.693 347.314L617.157 311.419L630.344 306.344L666.146 340.154Z" fill="#363636"/>
<path d="M654.406 190.296C629.308 190.725 629.312 228.057 654.406 228.482C679.502 228.053 679.498 190.721 654.406 190.296Z" fill="#FFB8B8"/>
<path d="M635.092 208.398H639.358L640.519 205.494L639.938 208.398H663.268L662.511 202.321L668.182 208.398H673.839V205.106C673.841 202.562 673.341 200.042 672.369 197.691C671.398 195.34 669.972 193.204 668.174 191.403C666.377 189.603 664.242 188.175 661.893 187.2C659.543 186.224 657.024 185.722 654.48 185.72C651.936 185.718 649.417 186.217 647.066 187.189C644.715 188.161 642.578 189.586 640.778 191.384C638.978 193.182 637.55 195.316 636.574 197.666C635.599 200.015 635.096 202.534 635.095 205.078L635.092 208.398Z" fill="#363636"/>
<path d="M628.526 239.63L675.951 240.015L665.931 341.691C665.931 341.691 610.468 338.764 610.434 321.834L615.629 306.79L628.526 239.63Z" fill="#363636"/>
<path d="M677.99 351.52C677.261 350.627 676.737 349.585 676.454 348.468C676.171 347.35 676.136 346.184 676.353 345.052C676.569 343.92 677.031 342.849 677.707 341.915C678.382 340.981 679.253 340.206 680.26 339.645L678.199 321.745L688.772 317.839L691.327 343.159C692.152 344.912 692.306 346.907 691.76 348.767C691.214 350.626 690.006 352.221 688.364 353.251C686.722 354.28 684.76 354.672 682.849 354.353C680.937 354.034 679.209 353.026 677.99 351.52Z" fill="#FFB6B6"/>
<path d="M669.715 248.774L675.955 240.051C675.955 240.051 680.226 239.104 685.271 244.99C690.316 250.876 693.259 324.453 693.259 324.453L674.76 328.657L663.829 276.523L669.715 248.774Z" fill="#363636"/>
<path d="M565.183 328.563L566.559 393.93L608.876 416.293L685.94 402.531L687.833 334.584L638.979 317.381L565.183 328.563Z" fill="white"/>
<path d="M608.765 416.999L565.891 394.342L564.494 327.983L639.044 316.688L688.521 334.11L686.6 403.1L608.765 416.999ZM567.225 393.518L608.985 415.587L685.28 401.963L687.143 335.057L638.913 318.074L565.87 329.142L567.225 393.518Z" fill="#CACACA"/>
<path d="M607.931 346.286L607.765 346.22L564.932 329.19L565.431 327.935L608.099 344.899L687.74 333.914L687.925 335.253L607.931 346.286Z" fill="#CACACA"/>
<path d="M608.69 345.584L607.338 345.601L608.198 416.301L609.55 416.285L608.69 345.584Z" fill="#CACACA"/>
<path d="M602.517 342.902L587.077 336.643L661.406 324.799L676.846 331.058L602.517 342.902Z" fill="#CACACA"/>
<path d="M565.448 347.525L564.914 348.766L582.822 356.477L583.356 355.235L565.448 347.525Z" fill="#CACACA"/>
<path d="M573.558 369.825L573.024 371.066L590.931 378.777L591.466 377.535L573.558 369.825Z" fill="#006E62"/>
<path d="M329.736 419.378L331.112 484.745L373.429 507.108L450.493 493.346L452.386 425.398L403.532 408.196L329.736 419.378Z" fill="white"/>
<path d="M373.32 507.813L330.446 485.156L329.049 418.798L403.599 407.503L453.077 424.924L451.155 493.914L373.32 507.813ZM331.78 484.333L373.54 506.401L449.835 492.777L451.698 425.872L403.468 408.889L330.425 419.956L331.78 484.333Z" fill="#CACACA"/>
<path d="M372.485 437.101L372.319 437.035L329.487 420.005L329.985 418.749L372.653 435.713L452.294 424.729L452.479 426.068L372.485 437.101Z" fill="#CACACA"/>
<path d="M373.245 436.399L371.894 436.415L372.754 507.116L374.105 507.099L373.245 436.399Z" fill="#CACACA"/>
<path d="M363.332 432.178L351.632 427.457L425.961 415.614L437.66 420.334L363.332 432.178Z" fill="#CACACA"/>
<path d="M330.004 438.34L329.469 439.581L347.377 447.291L347.911 446.05L330.004 438.34Z" fill="#CACACA"/>
<path d="M338.112 460.64L337.578 461.881L355.486 469.591L356.02 468.35L338.112 460.64Z" fill="#006E62"/>
<path d="M403.252 428.34L404.85 504.221L453.973 530.181L543.433 514.206L545.629 435.329L488.918 415.36L403.252 428.34Z" fill="#006E62"/>
<path d="M453.845 531L404.076 504.699L402.454 427.667L488.995 414.555L546.43 434.779L544.2 514.865L453.845 531ZM405.625 503.743L454.101 529.361L542.667 513.545L544.83 435.879L488.843 416.165L404.051 429.012L405.625 503.743Z" fill="#363636"/>
<path d="M452.878 448.914L452.686 448.838L402.963 429.069L403.543 427.61L453.073 447.303L545.523 434.552L545.737 436.106L452.878 448.914Z" fill="#363636"/>
<path d="M453.76 448.099L452.191 448.118L453.19 530.19L454.758 530.171L453.76 448.099Z" fill="#363636"/>
<path d="M443.048 443.236L428.67 437.72L514.954 423.971L529.332 429.486L443.048 443.236Z" fill="#363636"/>
<path d="M403.563 450.352L402.942 451.793L423.73 460.743L424.351 459.302L403.563 450.352Z" fill="#363636"/>
<path d="M412.977 476.239L412.356 477.68L433.144 486.63L433.764 485.189L412.977 476.239Z" fill="white"/>
<path d="M589.174 339.372C590.218 338.882 591.141 338.169 591.879 337.284C592.617 336.399 593.153 335.363 593.447 334.248C593.741 333.134 593.788 331.969 593.583 330.835C593.379 329.7 592.928 328.625 592.263 327.683L601.867 312.438L594.027 304.342L580.766 326.061C579.259 327.284 578.253 329.017 577.939 330.932C577.624 332.847 578.023 334.81 579.059 336.451C580.096 338.091 581.698 339.295 583.562 339.833C585.426 340.372 587.423 340.207 589.174 339.372Z" fill="#FFB6B6"/>
<path d="M635.814 243.638L628.933 239.104C628.933 239.104 623.623 240.295 617.976 251.157C612.328 262.019 589.554 310.583 589.554 310.583L598.915 320.085L623.889 281.986L635.814 243.638Z" fill="#363636"/>
</svg>
