<svg width="134" height="96" viewBox="0 0 134 96" fill="none" xmlns="http://www.w3.org/2000/svg">
<g clip-path="url(#clip0_304_304)">
<path d="M71.6402 12.0644C57.8328 16.4727 14.0986 -5.26475 17.5212 24.4271C18.056 28.8422 20.8998 35.0782 18.4981 39.2001C16.7582 42.2869 13.5684 44.0956 10.4872 45.2957C2.43892 48.5677 -0.557578 54.7085 1.48042 63.4729C6.93225 87.0897 36.6104 81.489 52.1905 74.4863C63.2705 69.2751 76.3381 68.3801 87.8115 72.7884C96.7999 76.3779 102.403 83.908 112.953 81.702C122.309 79.8245 123.72 70.9917 120.988 62.7692C119.436 57.6821 118.322 55.5326 121.401 50.6223C123.994 45.7455 128.561 42.0502 128.912 36.3369C128.989 30.1489 126.145 23.9132 120.642 21.5693C116.14 19.652 112.059 20.4259 107.605 19.247C97.6981 16.4628 91.3315 1.07008 79.0414 6.36387C75.9772 7.81026 74.2528 11.1437 70.9138 12.1145" fill="#006E62"/>
<path d="M66.6338 9.94336C67.8851 9.94336 67.8851 8.00308 66.6338 8.00308C65.3825 8.00308 65.3825 9.94336 66.6338 9.94336Z" fill="#006E62"/>
<path d="M9.15283 39.7754C11.6554 39.7754 11.6554 35.8948 9.15283 35.8948C6.65023 35.8948 6.65023 39.7754 9.15283 39.7754Z" fill="#006E62"/>
<path d="M125.812 55.25C128.315 55.25 128.315 51.3694 125.812 51.3694C123.309 51.3694 123.309 55.25 125.812 55.25Z" fill="#006E62"/>
<path d="M60.085 8.97461C62.5876 8.97461 62.5876 5.09405 60.085 5.09405C57.5824 5.09405 57.5824 8.97461 60.085 8.97461Z" fill="#006E62"/>
<path d="M129.692 49.0898C132.946 49.0898 132.946 44.0451 129.692 44.0451C126.439 44.0451 126.439 49.0898 129.692 49.0898Z" fill="#006E62"/>
<path d="M2.60454 46.1777C5.85785 46.1777 5.85785 41.133 2.60454 41.133C-0.648778 41.133 -0.648778 46.1777 2.60454 46.1777Z" fill="#006E62"/>
<path d="M110.29 15.8613C113.543 15.8613 113.543 10.8166 110.29 10.8166C107.036 10.8166 107.036 15.8613 110.29 15.8613Z" fill="#006E62"/>
<path d="M65.6633 5.82031C69.4172 5.82031 69.4172 -0.000520855 65.6633 -0.000520855C61.9098 -0.000520855 61.9098 5.82031 65.6633 5.82031Z" fill="#006E62"/>
<path d="M131.779 53.6484C133.655 53.6484 133.655 50.738 131.779 50.738C129.902 50.738 129.902 53.6484 131.779 53.6484Z" fill="#006E62"/>
<path d="M1.92516 38.0781C3.80194 38.0781 3.80194 35.1677 1.92516 35.1677C0.0483837 35.1677 0.0483837 38.0781 1.92516 38.0781Z" fill="#006E62"/>
<path d="M116.353 18.6758C118.23 18.6758 118.23 15.7654 116.353 15.7654C114.477 15.7654 114.477 18.6758 116.353 18.6758Z" fill="#006E62"/>
<path d="M115.868 13.3398C117.119 13.3398 117.119 11.3996 115.868 11.3996C114.617 11.3996 114.617 13.3398 115.868 13.3398Z" fill="#006E62"/>
<path d="M17.5933 9.99219C20.0959 9.99219 20.0959 6.11163 17.5933 6.11163C15.0907 6.11163 15.0907 9.99219 17.5933 9.99219Z" fill="#006E62"/>
<path d="M127.995 76.8828C130.497 76.8828 130.497 73.0023 127.995 73.0023C125.492 73.0023 125.492 76.8828 127.995 76.8828Z" fill="#006E62"/>
<path d="M1.87695 78.582C4.37956 78.582 4.37956 74.7015 1.87695 74.7015C-0.625651 74.7015 -0.625651 78.582 1.87695 78.582Z" fill="#006E62"/>
<path d="M23.4141 7.08203C24.6654 7.08203 24.6654 5.14175 23.4141 5.14175C22.1628 5.14175 22.1628 7.08203 23.4141 7.08203Z" fill="#006E62"/>
<path d="M128.237 69.123C129.489 69.123 129.489 67.1828 128.237 67.1828C126.986 67.1828 126.986 69.123 128.237 69.123Z" fill="#006E62"/>
<path d="M7.69775 81.0059C8.94906 81.0059 8.94906 79.0656 7.69775 79.0656C6.44645 79.0656 6.44645 81.0059 7.69775 81.0059Z" fill="#006E62"/>
<path d="M35.3956 48.3396C34.0885 48.8014 33.2256 48.8896 32.5561 47.5677C32.0403 46.5496 31.6963 45.4987 31.0472 44.5458C29.6403 42.4803 28.2779 42.342 26.0251 42.6362C23.7892 42.928 20.7391 42.3568 20.3997 39.7713C20.158 37.9284 20.1439 36.234 19.3368 34.51C18.9395 33.6609 17.6851 34.3999 18.0805 35.2445C18.9755 37.1576 18.5843 39.24 19.2394 41.1884C19.9037 43.1654 22.117 43.8029 23.9772 44.0251C25.383 44.1927 26.6139 43.8537 27.9922 43.8551C29.4724 43.8568 30.4831 46.3961 30.9523 47.5106C31.9302 49.8347 33.3156 50.6143 35.7826 49.7429C36.661 49.4325 36.2828 48.0263 35.3956 48.3396Z" fill="#1C1C1B"/>
<path d="M20.0175 32.5454C19.5818 33.1162 19.0491 33.4725 18.4151 33.7918C17.7445 34.1297 18.3343 35.1338 19.0029 34.7972C19.827 34.382 20.4616 33.868 21.0229 33.1331C21.2158 32.8802 21.0624 32.4823 20.814 32.3366C20.5145 32.1616 20.2097 32.2939 20.0175 32.5454Z" fill="#1C1C1B"/>
<path d="M17.9326 30.9965C17.9358 32.2274 18.1154 33.4515 18.1266 34.6831C18.1334 35.4334 19.2975 35.4341 19.2908 34.6831C19.2795 33.4515 19.1 32.2274 19.0968 30.9965C19.0947 30.2458 17.9305 30.2458 17.9326 30.9965Z" fill="#1C1C1B"/>
<path d="M15.9693 32.1837C16.7483 33.1573 17.5392 34.1289 18.6092 34.7971C19.2481 35.1957 19.8319 34.1882 19.1969 33.7916C18.2201 33.1817 17.5029 32.2486 16.7924 31.3606C16.3232 30.7743 15.5054 31.6037 15.9693 32.1837Z" fill="#1C1C1B"/>
<path d="M14.9989 33.9301C16.0819 34.9542 17.432 35.2936 18.8636 34.8561C19.5793 34.6374 19.2738 33.5134 18.5542 33.7332C17.5205 34.0493 16.6128 33.8546 15.8219 33.107C15.2772 32.5916 14.4524 33.4136 14.9989 33.9301Z" fill="#1C1C1B"/>
<path d="M94.9136 51.951C94.9658 50.0492 95.6015 49.4149 97.4373 49.2653C98.6301 49.168 99.8401 49.1842 101.02 48.9648C102.82 48.6293 102.786 46.1457 103.483 44.8644C104.547 42.9065 107.405 43.1147 109.25 42.5365C111.282 41.8993 112.062 40.1788 112.182 38.1751C112.238 37.2374 110.783 37.2427 110.727 38.1751C110.548 41.156 108.362 41.2598 105.961 41.754C103.844 42.1893 102.411 43.3496 101.675 45.3894C101.445 46.0275 101.388 47.3586 100.633 47.5614C99.4023 47.8916 97.9859 47.7406 96.7198 47.8779C94.3406 48.1357 93.5208 49.6933 93.4583 51.951C93.4326 52.8901 94.8878 52.8873 94.9136 51.951Z" fill="#1C1C1B"/>
<path d="M108.759 36.39C109.256 37.5761 110.113 38.4337 111.3 38.9311C111.593 39.0539 111.94 38.8006 112.015 38.5243C112.108 38.1888 111.901 37.931 111.609 37.8082C110.844 37.4875 110.202 36.8458 109.881 36.0806C109.758 35.7882 109.501 35.5815 109.165 35.6739C108.889 35.7501 108.635 36.0969 108.759 36.39Z" fill="#1C1C1B"/>
<path d="M110.484 34.8762V37.7866C110.484 38.5373 111.648 38.5373 111.648 37.7866V34.8762C111.648 34.1254 110.484 34.1254 110.484 34.8762Z" fill="#1C1C1B"/>
<path d="M112.445 35.1097C112.092 36.1275 111.483 36.8934 110.654 37.5693C110.072 38.0441 110.901 38.8626 111.478 38.3923C112.464 37.5873 113.15 36.6235 113.568 35.4191C113.814 34.7079 112.689 34.4049 112.445 35.1097Z" fill="#1C1C1B"/>
<path d="M113.862 36.3288C113.355 37.1328 112.553 37.6464 111.687 38.0017C111.003 38.2825 111.302 39.4089 111.997 39.1242C113.157 38.6486 114.186 37.9964 114.867 36.9165C115.269 36.2794 114.261 35.6959 113.862 36.3288Z" fill="#1C1C1B"/>
<path d="M101.851 73.0339C101.851 74.052 94.2291 74.3477 93.4054 74.3477H36.3693C35.5467 74.3477 27.9238 74.052 27.9238 73.0339L34.8788 62.6086C34.8788 61.5905 35.5467 60.7654 36.3693 60.7654H93.4054C94.2291 60.7654 94.8959 61.5905 94.8959 62.6086L101.851 73.0339Z" fill="#B4B4B4"/>
<path d="M53.1581 70.7129H38.4995L41.0646 64.504H54.3227L53.1581 70.7129Z" fill="#3C3C3A"/>
<path d="M76.6167 70.7129H91.2753L88.7095 64.504H75.4521L76.6167 70.7129Z" fill="#3C3C3A"/>
<path d="M92.9047 70.7129H98.0665L93.8427 64.504H89.9487L92.9047 70.7129Z" fill="#3C3C3A"/>
<path d="M36.8712 70.7129H31.709L35.9331 64.504H39.8264L36.8712 70.7129Z" fill="#3C3C3A"/>
<path d="M75.327 70.7129H54.4468L55.6109 64.504H74.1628L75.327 70.7129Z" fill="#3C3C3A"/>
<path d="M96.7926 66.5871H32.9829V65.6367H96.7926V66.5871Z" fill="#B4B4B4"/>
<path d="M97.4843 68.9152H32.291V67.9648H97.4843V68.9152Z" fill="#B4B4B4"/>
<path d="M102.241 75.4493C102.241 76.2724 102.071 76.9395 101.248 76.9395H28.5271C27.7034 76.9395 27.5337 76.2724 27.5337 75.4493V74.1716C27.5337 73.3485 27.7034 72.6814 28.5271 72.6814H101.248C102.071 72.6814 102.241 73.3485 102.241 74.1716V75.4493Z" fill="#3C3C3A"/>
<path d="M78.5179 74.8469C78.5179 75.2756 78.1707 75.623 77.7421 75.623H52.0334C51.6045 75.623 51.2573 75.2756 51.2573 74.8469C51.2573 74.4183 51.6045 74.0708 52.0334 74.0708H77.7421C78.1707 74.0708 78.5179 74.4183 78.5179 74.8469Z" fill="#707070"/>
<path d="M95.6409 61.2025C95.6409 62.0256 94.9738 62.6934 94.1501 62.6934H35.6246C34.8012 62.6934 34.1338 62.0256 34.1338 61.2025V23.0203C34.1338 22.1973 34.8012 21.5298 35.6246 21.5298H94.1501C94.9738 21.5298 95.6409 22.1973 95.6409 23.0203V61.2025Z" fill="#3C3C3A"/>
<path d="M64.8875 23.6035C65.6886 23.6035 65.6886 22.3614 64.8875 22.3614C64.0863 22.3614 64.0863 23.6035 64.8875 23.6035Z" fill="white"/>
<path d="M91.3355 58.802C91.3355 59.51 90.7615 60.084 90.0542 60.084H39.721C39.0136 60.084 38.439 59.51 38.439 58.802V25.9665C38.439 25.2585 39.0136 24.6845 39.721 24.6845H90.0542C90.7615 24.6845 91.3355 25.2585 91.3355 25.9665V58.802Z" fill="white"/>
<path d="M57.1875 37.9948L52.7969 42.3848" stroke="#325975" stroke-width="1.16417" stroke-miterlimit="10" stroke-linecap="round" stroke-linejoin="round"/>
<path d="M57.1872 42.3848L52.7969 37.9944" stroke="#325975" stroke-width="1.16417" stroke-miterlimit="10" stroke-linecap="round" stroke-linejoin="round"/>
<path d="M76.9781 37.9948L72.5874 42.3848" stroke="#325975" stroke-width="1.16417" stroke-miterlimit="10" stroke-linecap="round" stroke-linejoin="round"/>
<path d="M76.9783 42.3848L72.5884 37.9944" stroke="#325975" stroke-width="1.16417" stroke-miterlimit="10" stroke-linecap="round" stroke-linejoin="round"/>
<path d="M75.0074 47.6826V52.0158C75.0074 52.8734 74.312 53.5684 73.4551 53.5684H72.618C71.7608 53.5684 71.0654 52.8734 71.0654 52.0158V47.6826" fill="#F29BB4"/>
<path d="M73.7173 47.9084L73.0365 52.9531L72.356 47.9084H73.7173Z" fill="#EF82A2"/>
<path d="M51.731 47.6777H78.0436" stroke="#325975" stroke-width="0.970139" stroke-miterlimit="10" stroke-linecap="round" stroke-linejoin="round"/>
<path d="M47.4253 47.0352C49.9279 47.0352 49.9279 43.1546 47.4253 43.1546C44.9227 43.1546 44.9227 47.0352 47.4253 47.0352Z" fill="#F7C3D2"/>
<path d="M82.3501 47.0352C84.8527 47.0352 84.8527 43.1546 82.3501 43.1546C79.8475 43.1546 79.8475 47.0352 82.3501 47.0352Z" fill="#F7C3D2"/>
<path d="M85.6484 16.4432V29.249C85.6484 30.5003 87.5887 30.5003 87.5887 29.249V16.4432C87.5887 15.1919 85.6484 15.1919 85.6484 16.4432Z" fill="#F29101"/>
<path d="M86.6185 34.1973C88.4953 34.1973 88.4953 31.2868 86.6185 31.2868C84.7417 31.2868 84.7417 34.1973 86.6185 34.1973Z" fill="#F29101"/>
<path d="M90.8237 92.837C90.8237 94.5511 89.4341 95.9414 87.7189 95.9414H42.3167C40.6019 95.9414 39.2119 94.5511 39.2119 92.837V86.6281C39.2119 84.9136 40.6019 83.5236 42.3167 83.5236H87.7189C89.4341 83.5236 90.8237 84.9136 90.8237 86.6281V92.837Z" fill="#006E62"/>
<path d="M84.2275 90.3941V92.9286H83.5189V86.8342H85.1905C85.938 86.8342 86.4897 86.9773 86.8454 87.2635C87.2039 87.5498 87.3831 87.9805 87.3831 88.5558C87.3831 89.3617 86.9746 89.9064 86.1576 90.1899L87.8125 92.9286H86.9746L85.4989 90.3941H84.2275V90.3941ZM84.2275 89.7855H85.1988C85.699 89.7855 86.0659 89.6868 86.2993 89.4895C86.5327 89.2894 86.6495 88.9907 86.6495 88.5933C86.6495 88.1903 86.53 87.8999 86.291 87.7221C86.0547 87.5442 85.674 87.4553 85.1488 87.4553H84.2275V89.7855V89.7855ZM82.1557 89.873C82.1557 90.8485 81.9084 91.6155 81.4137 92.1741C80.9219 92.7327 80.2368 93.012 79.3586 93.012C78.461 93.012 77.7676 92.7382 77.2785 92.1908C76.7922 91.6405 76.549 90.8652 76.549 89.8647C76.549 88.8726 76.7936 88.1042 77.2827 87.5595C77.7718 87.012 78.4666 86.7383 79.367 86.7383C80.2424 86.7383 80.926 87.0162 81.4179 87.572C81.9098 88.1278 82.1557 88.8948 82.1557 89.873ZM77.2994 89.873C77.2994 90.6984 77.4744 91.3251 77.8246 91.7531C78.1775 92.1783 78.6889 92.3909 79.3586 92.3909C80.0339 92.3909 80.5439 92.1783 80.8885 91.7531C81.2331 91.3279 81.4054 90.7012 81.4054 89.873C81.4054 89.0532 81.2331 88.4321 80.8885 88.0097C80.5467 87.5845 80.0395 87.3719 79.367 87.3719C78.6917 87.3719 78.1775 87.5859 77.8246 88.0139C77.4744 88.4391 77.2994 89.0588 77.2994 89.873ZM72.2888 90.3941V92.9286H71.5801V86.8342H73.2517C73.9993 86.8342 74.5509 86.9773 74.9066 87.2635C75.2651 87.5498 75.4444 87.9805 75.4444 88.5558C75.4444 89.3617 75.0358 89.9064 74.2188 90.1899L75.8737 92.9286H75.0358L73.5602 90.3941H72.2888V90.3941ZM72.2888 89.7855H73.26C73.7603 89.7855 74.1271 89.6868 74.3605 89.4895C74.594 89.2894 74.7107 88.9907 74.7107 88.5933C74.7107 88.1903 74.5912 87.8999 74.3522 87.7221C74.116 87.5442 73.7352 87.4553 73.21 87.4553H72.2888V89.7855V89.7855ZM67.003 90.3941V92.9286H66.2944V86.8342H67.9659C68.7135 86.8342 69.2652 86.9773 69.6209 87.2635C69.9794 87.5498 70.1586 87.9805 70.1586 88.5558C70.1586 89.3617 69.7501 89.9064 68.9331 90.1899L70.588 92.9286H69.7501L68.2744 90.3941H67.003V90.3941ZM67.003 89.7855H67.9743C68.4745 89.7855 68.8413 89.6868 69.0748 89.4895C69.3082 89.2894 69.4249 88.9907 69.4249 88.5933C69.4249 88.1903 69.3054 87.8999 69.0665 87.7221C68.8302 87.5442 68.4495 87.4553 67.9243 87.4553H67.003V89.7855V89.7855ZM64.9396 92.9286H61.5422V86.8342H64.9396V87.4636H62.2508V89.427H64.777V90.0523H62.2508V92.295H64.9396V92.9286V92.9286ZM58.3574 91.6655H57.6237V92.9286H56.3648V91.6655H53.7636V90.7693L56.4357 86.8342H57.6237V90.6651H58.3574V91.6655ZM56.3648 90.6651V89.6313C56.3648 89.459 56.3718 89.2089 56.3857 88.8809C56.3996 88.553 56.4107 88.3626 56.419 88.3098H56.3857C56.2828 88.5377 56.1592 88.76 56.0147 88.9768L54.8975 90.6651H56.3648H56.3648ZM53.3176 89.8814C53.3176 90.9458 53.1425 91.7336 52.7924 92.245C52.445 92.7563 51.9086 93.012 51.1833 93.012C50.4802 93.012 49.9494 92.748 49.5909 92.2199C49.2352 91.6919 49.0573 90.9124 49.0573 89.8814C49.0573 88.8059 49.231 88.0139 49.5784 87.5053C49.9258 86.994 50.4608 86.7383 51.1833 86.7383C51.8864 86.7383 52.4172 87.0051 52.7757 87.5386C53.137 88.0722 53.3176 88.8531 53.3176 89.8814V89.8814ZM50.3371 89.8814C50.3371 90.6289 50.401 91.1653 50.5288 91.4904C50.6595 91.8128 50.8776 91.974 51.1833 91.974C51.4834 91.974 51.7002 91.81 51.8336 91.4821C51.967 91.1542 52.0337 90.6206 52.0337 89.8814C52.0337 89.1338 51.9656 88.5975 51.8294 88.2723C51.696 87.9444 51.4807 87.7804 51.1833 87.7804C50.8804 87.7804 50.6636 87.9444 50.533 88.2723C50.4024 88.5975 50.3371 89.1338 50.3371 89.8814ZM48.6196 91.6655H47.886V92.9286H46.6271V91.6655H44.0259V90.7693L46.6979 86.8342H47.886V90.6651H48.6196V91.6655ZM46.6271 90.6651V89.6313C46.6271 89.459 46.634 89.2089 46.6479 88.8809C46.6618 88.553 46.6729 88.3626 46.6812 88.3098H46.6479C46.5451 88.5377 46.4214 88.76 46.2769 88.9768L45.1597 90.6651H46.627H46.6271Z" fill="white"/>
</g>
<defs>
<clipPath id="clip0_304_304">
<rect width="133.186" height="95.9424" fill="white"/>
</clipPath>
</defs>
</svg>
