<svg width="28" height="27" viewBox="0 0 28 27" fill="none" xmlns="http://www.w3.org/2000/svg">
<path d="M19.7161 2.48823C21.1754 2.49259 22.5737 3.07423 23.6056 4.10611C24.6375 5.138 25.2191 6.53629 25.2235 7.99559V19.0091C25.2191 20.4684 24.6375 21.8667 23.6056 22.8986C22.5737 23.9305 21.1754 24.5121 19.7161 24.5165H8.70262C7.24332 24.5121 5.84503 23.9305 4.81314 22.8986C3.78126 21.8667 3.19962 20.4684 3.19526 19.0091V7.99559C3.19962 6.53629 3.78126 5.138 4.81314 4.10611C5.84503 3.07423 7.24332 2.49259 8.70262 2.48823H19.7161ZM19.7161 0.285645H8.70262C4.46206 0.285645 0.992676 3.75503 0.992676 7.99559V19.0091C0.992676 23.2497 4.46206 26.7191 8.70262 26.7191H19.7161C23.9567 26.7191 27.4261 23.2497 27.4261 19.0091V7.99559C27.4261 3.75503 23.9567 0.285645 19.7161 0.285645Z" fill="#006E62"/>
<path d="M21.3682 7.99559C21.0415 7.99559 20.7221 7.89869 20.4504 7.71716C20.1787 7.53563 19.9669 7.2776 19.8419 6.97572C19.7169 6.67384 19.6841 6.34167 19.7479 6.02119C19.8116 5.70072 19.969 5.40634 20.2 5.1753C20.4311 4.94425 20.7255 4.7869 21.0459 4.72315C21.3664 4.65941 21.6986 4.69213 22.0005 4.81717C22.3023 4.94221 22.5604 5.15396 22.7419 5.42565C22.9234 5.69733 23.0203 6.01675 23.0203 6.3435C23.0208 6.56058 22.9784 6.77563 22.8955 6.97628C22.8127 7.17693 22.691 7.35924 22.5375 7.51274C22.384 7.66624 22.2017 7.78792 22.001 7.87078C21.8004 7.95364 21.5853 7.99605 21.3682 7.99559ZM14.2094 9.09658C15.0808 9.09658 15.9326 9.35498 16.6571 9.83909C17.3816 10.3232 17.9463 11.0113 18.2798 11.8163C18.6132 12.6214 18.7005 13.5072 18.5305 14.3619C18.3605 15.2165 17.9409 16.0015 17.3247 16.6177C16.7086 17.2339 15.9235 17.6535 15.0689 17.8235C14.2143 17.9935 13.3284 17.9062 12.5234 17.5727C11.7183 17.2393 11.0302 16.6746 10.5461 15.9501C10.062 15.2255 9.80362 14.3737 9.80362 13.5023C9.80487 12.3342 10.2694 11.2144 11.0954 10.3884C11.9214 9.56241 13.0413 9.09783 14.2094 9.09658ZM14.2094 6.894C12.9024 6.894 11.6247 7.28157 10.538 8.00771C9.45124 8.73384 8.60423 9.76592 8.10406 10.9734C7.60389 12.181 7.47302 13.5097 7.72801 14.7916C7.98299 16.0735 8.61238 17.251 9.53657 18.1752C10.4608 19.0994 11.6383 19.7287 12.9202 19.9837C14.2021 20.2387 15.5308 20.1078 16.7383 19.6077C17.9458 19.1075 18.9779 18.2605 19.704 17.1738C20.4302 16.087 20.8177 14.8094 20.8177 13.5023C20.8177 11.7497 20.1215 10.0688 18.8822 8.82954C17.6429 7.59023 15.962 6.894 14.2094 6.894Z" fill="#006E62"/>
</svg>
