<svg width="28" height="27" viewBox="0 0 28 27" fill="none" xmlns="http://www.w3.org/2000/svg">
<path d="M24.948 0H2.8873C1.68187 0 0.628662 0.867346 0.628662 2.05862V24.1683C0.628662 25.366 1.68187 26.4334 2.8873 26.4334H24.9415C26.1534 26.4334 27.0621 25.359 27.0621 24.1683V2.05862C27.0692 0.867346 26.1534 0 24.948 0ZM8.82243 22.0335H5.03561V10.2595H8.82243V22.0335ZM7.06001 8.46931H7.03286C5.82094 8.46931 5.0362 7.56715 5.0362 6.43783C5.0362 5.28786 5.84159 4.40695 7.08066 4.40695C8.31972 4.40695 9.07791 5.28137 9.10505 6.43783C9.10446 7.56715 8.31972 8.46931 7.06001 8.46931ZM22.6622 22.0335H18.8754V15.5957C18.8754 14.0534 18.3243 12.9996 16.9542 12.9996C15.9075 12.9996 15.288 13.7076 15.0125 14.3974C14.9092 14.6452 14.8815 14.9827 14.8815 15.3272V22.0335H11.0946V10.2595H14.8815V11.898C15.4326 11.1132 16.2934 9.98392 18.2966 9.98392C20.7824 9.98392 22.6628 11.6224 22.6628 15.155L22.6622 22.0335Z" fill="#006E62"/>
</svg>
