<svg width="29" height="24" viewBox="0 0 29 24" fill="none" xmlns="http://www.w3.org/2000/svg">
<path d="M29 3.50106C27.9376 3.96267 26.8135 4.26679 25.6633 4.40381C26.8721 3.69599 27.7812 2.5715 28.22 1.24124C27.0771 1.9095 25.8289 2.37839 24.5287 2.62781C23.9812 2.05402 23.3228 1.59756 22.5934 1.28617C21.864 0.974772 21.0789 0.81495 20.2858 0.816416C17.0749 0.816416 14.4764 3.37715 14.4764 6.53382C14.4741 6.9729 14.5244 7.41067 14.6262 7.83779C12.3237 7.72985 10.0691 7.14249 8.00665 6.11328C5.94417 5.08407 4.11923 3.63568 2.64858 1.86077C2.13264 2.73055 1.85979 3.72294 1.85853 4.73422C1.85853 6.71673 2.89285 8.46912 4.45467 9.49578C3.52934 9.47382 2.62297 9.22891 1.81251 8.78184V8.85264C1.81251 11.6258 3.81861 13.9328 6.47376 14.4579C5.97446 14.591 5.45994 14.6585 4.94321 14.6586C4.57656 14.6592 4.21073 14.6236 3.85107 14.5523C4.5892 16.824 6.7375 18.4761 9.28231 18.5233C7.21447 20.1169 4.6757 20.9782 2.06504 20.9719C1.60164 20.9712 1.13867 20.9436 0.678467 20.8893C3.3343 22.5852 6.42151 23.4822 9.5726 23.4736C20.2734 23.4736 26.1194 14.7589 26.1194 7.20055C26.1194 6.95274 26.113 6.70493 26.1012 6.46301C27.2358 5.65589 28.2175 4.65287 29 3.50106Z" fill="#006E62"/>
</svg>
